<?xml version="1.0" encoding="UTF-8" standalone="no"?>
<!-- Created with Inkscape (http://www.inkscape.org/) -->

<svg
   xmlns:dc="http://purl.org/dc/elements/1.1/"
   xmlns:cc="http://creativecommons.org/ns#"
   xmlns:rdf="http://www.w3.org/1999/02/22-rdf-syntax-ns#"
   xmlns:svg="http://www.w3.org/2000/svg"
   xmlns="http://www.w3.org/2000/svg"
   xmlns:sodipodi="http://sodipodi.sourceforge.net/DTD/sodipodi-0.dtd"
   xmlns:inkscape="http://www.inkscape.org/namespaces/inkscape"
   id="svg2"
   version="1.1"
   inkscape:version="0.91 r13725"
   width="156.93085"
   height="185.83493"
   viewBox="0 0 156.93085 185.83493"
   sodipodi:docname="rocktbase.svg">
  <metadata
     id="metadata8">
    <rdf:RDF>
      <cc:Work
         rdf:about="">
        <dc:format>image/svg+xml</dc:format>
        <dc:type
           rdf:resource="http://purl.org/dc/dcmitype/StillImage" />
        <dc:title></dc:title>
      </cc:Work>
    </rdf:RDF>
  </metadata>
  <defs
     id="defs6" />
  <sodipodi:namedview
     pagecolor="#ffffff"
     bordercolor="#666666"
     borderopacity="1"
     objecttolerance="10"
     gridtolerance="10"
     guidetolerance="10"
     inkscape:pageopacity="0"
     inkscape:pageshadow="2"
     inkscape:window-width="1366"
     inkscape:window-height="742"
     id="namedview4"
     showgrid="false"
     inkscape:zoom="0.1767767"
     inkscape:cx="717.6082"
     inkscape:cy="-100.9534"
     inkscape:window-x="0"
     inkscape:window-y="0"
     inkscape:window-maximized="1"
     inkscape:current-layer="svg2"
     fit-margin-top="0"
     fit-margin-left="0"
     fit-margin-right="0"
     fit-margin-bottom="0" />
  <path
     style="fill:#000000"
     d="m 109.05875,158.23074 c -1.19001,-1.34463 -2.69616,-2.81485 -3.34701,-3.26713 -0.65084,-0.4523 -2.14086,-1.78326 -3.31115,-2.95773 -1.17026,-1.17444 -3.485509,-3.38127 -5.144989,-4.90404 -1.65945,-1.52279 -4.16461,-3.91241 -5.56701,-5.31029 -3.13228,-3.12212 -4.16073,-3.42661 -4.44814,-1.3169 -0.31628,2.32157 -0.61429,2.41991 -5.76228,1.90116 -0.49267,-0.0496 -1.00816,-0.0133 -1.14552,0.0807 -0.13733,0.094 -2.09434,0.0914 -4.34888,-0.006 -2.25452,-0.0973 -5.22044,-0.11264 -6.59087,-0.034 -1.37043,0.0785 -2.62473,-0.0515 -2.78729,-0.28912 -0.16259,-0.23754 -0.51578,-0.28121 -0.7849,-0.0971 -0.55677,0.38104 -4.7499,0.41171 -5.354275,0.0391 -0.218971,-0.13505 -0.582435,-0.11929 -0.807713,0.035 -0.346673,0.23726 -8.110356,0.15158 -10.887691,-0.12024 -0.599512,-0.0587 -1.056735,-0.62447 -1.442385,-1.78505 -0.531739,-1.59994 -0.641035,-1.64686 -1.872464,-0.8041 -0.719293,0.49227 -1.782675,1.51747 -2.363079,2.27827 -0.580422,0.76079 -3.010704,3.06639 -5.400642,5.12356 -2.389937,2.05719 -6.692626,5.75896 -9.561516,8.22617 -2.86889,2.46723 -5.31036,4.47243 -5.425469,4.456 -0.438094,-0.0625 -0.654387,-1.99447 -0.253978,-2.26851 0.230957,-0.15804 0.26925,-0.50758 0.0851,-0.77669 -0.328628,-0.48023 -0.403866,-3.99251 -0.126315,-5.89791 0.0775,-0.53193 0.105041,-3.2004 0.06135,-5.92995 -0.04388,-2.72956 -0.03685,-5.36974 0.0152,-5.8671 0.275671,-2.6207 0.294305,-3.13565 0.122516,-3.38661 -0.210253,-0.30722 -0.195874,-4.19354 0.02108,-5.68261 0.0775,-0.53193 0.105041,-3.20041 0.06135,-5.92995 -0.04388,-2.72957 -0.03685,-5.36974 0.0152,-5.8671 0.283744,-2.69744 0.284161,-3.15047 0.0038,-3.56089 -0.168673,-0.24657 -0.04559,-1.38779 0.273524,-2.53608 0.52587,-1.89182 1.126521,-2.5056 6.399975,-6.53972 7.633968,-5.839929 10.065295,-8.416569 10.163175,-10.770699 0.04198,-1.0072 0.09801,-2.15703 0.124795,-2.55514 0.02678,-0.39813 0.05945,-1.81874 0.07256,-3.15692 0.03077,-3.15383 0.08263,-3.86188 0.4841,-6.60763 0.183869,-1.25743 0.244197,-2.41784 0.134103,-2.57867 -0.550259,-0.80405 4.54831,-22.660686 5.426304,-23.261584 0.157087,-0.10751 0.494205,-1.03736 0.749248,-2.066419 0.679252,-2.7406 1.933114,-5.983952 2.450169,-6.337824 0.247559,-0.169433 0.404399,-0.526192 0.348516,-0.792822 -0.134673,-0.642364 3.147771,-7.814608 3.771824,-8.241681 0.267921,-0.1833 0.445484,-0.545567 0.394597,-0.804903 -0.122136,-0.622097 6.24813,-12.02975 7.00678,-12.547642 0.323557,-0.220889 0.454981,-0.596416 0.292025,-0.834496 -0.162974,-0.238099 0.255252,-1.019694 0.929375,-1.736898 0.674084,-0.717203 1.590618,-1.988692 2.036711,-2.825544 0.44609,-0.836832 1.05054,-1.687322 1.34319,-1.889939 0.29265,-0.202598 0.92187,-1.099339 1.39828,-1.992719 0.47639,-0.89338 1.24621,-1.88633 1.71071,-2.206562 0.78307,-0.540515 1.17512,-0.07104 5.41019,6.478233 4.88543,7.554987 10.18331,17.073785 11.06001,19.871668 0.29497,0.941361 1.12206,3.019709 1.83797,4.618553 2.50195,5.587417 3.75908,8.826268 3.70589,9.547783 -0.0294,0.399954 0.41358,1.728085 0.98458,2.951382 0.57098,1.223319 0.84515,2.356298 0.60923,2.517754 -0.23591,0.161455 -0.13125,0.728391 0.23241,1.259864 0.36373,0.531454 0.90652,2.25743 1.2062,3.835475 0.29966,1.578045 0.66324,3.409613 0.80792,4.070156 0.25854,1.180219 1.44651,9.408555 1.84354,12.769085 0.11131,0.94193 0.12422,1.92137 0.0291,2.17651 -0.0954,0.25516 0.004,1.04173 0.22058,1.74797 0.21666,0.70625 0.19656,1.41914 -0.0446,1.58422 -0.24122,0.16506 -0.21679,0.62421 0.0543,1.02028 0.27108,0.39608 0.25881,1.05919 -0.0274,1.47358 -0.28608,0.41441 -0.34056,1.01584 -0.121,1.33656 0.3518,0.51402 0.34972,1.48942 -0.0114,5.0316 -0.0617,0.60602 0.25365,1.08674 0.93777,1.42977 0.56686,0.2842 1.9912,1.41302 3.165189,2.508479 1.17398,1.09547 3.22116,2.9571 4.54929,4.13696 1.32812,1.17988 3.30363,2.9352 4.38999,3.90074 1.08637,0.96554 2.43078,1.99107 2.98759,2.27894 0.96206,0.49737 1.31569,2.2376 1.04156,5.12472 -0.0469,0.49365 -0.13354,1.3944 -0.19272,2.00169 -0.0591,0.60728 0.0211,1.29188 0.17798,1.52136 0.15708,0.22948 0.12441,1.0899 -0.0726,1.91205 -0.1969,0.82215 -0.16317,1.77945 0.0748,2.12733 0.23808,0.34787 0.26404,0.74806 0.0577,0.88928 -0.20636,0.14113 -0.31514,2.08006 -0.24173,4.30852 0.0735,2.22845 -0.0526,4.17913 -0.28019,4.33485 -0.22754,0.15576 -0.21863,0.56817 0.0198,0.91657 0.38189,0.55799 0.38675,1.48877 0.0264,5.06466 -0.0496,0.49269 -0.0133,1.00817 0.0807,1.14552 0.094,0.13733 0.0914,2.09434 -0.006,4.34888 -0.0973,2.25455 -0.11264,5.22044 -0.034,6.59088 0.0785,1.37043 -0.0517,2.62473 -0.28912,2.7873 -0.23755,0.1626 -0.23683,0.58063 0.002,0.92902 0.23842,0.34838 0.34424,1.41108 0.23515,2.36154 -0.10903,0.95044 -0.0758,1.90732 0.0743,2.12638 0.14987,0.21907 -0.12632,0.67128 -0.61374,1.0049 -0.72514,0.49628 -1.27977,0.16203 -3.04997,-1.8382 z M 78.894661,78.093291 c 1.09563,-2.037448 1.70664,-4.996525 1.61879,-7.839582 -0.0695,-2.251922 -4.44116,-9.220352 -5.58009,-8.894801 -0.35292,0.100862 -0.83793,-0.103331 -1.07778,-0.453765 -0.53949,-0.788282 -4.18475,-1.587467 -6.90548,-1.513938 -1.55314,0.04198 -2.86703,0.62637 -5.558469,2.472223 -3.043679,2.087636 -3.676052,2.779728 -4.635287,5.074616 -0.610889,1.46155 -1.071835,3.948988 -1.024329,5.527622 0.07579,2.519254 0.401055,3.325485 2.659511,6.593015 1.67357,2.42185 2.810348,3.65501 3.251881,3.52879 0.373282,-0.10675 0.855521,0.0642 1.071567,0.37993 0.427762,0.62504 4.374566,1.33617 7.088766,1.27727 2.33196,-0.0505 7.79986,-3.75048 9.09092,-6.15138 z m 1.48565,73.105489 c -1.27625,0.0539 -2.50324,-0.0171 -2.72664,-0.15899 -0.22341,-0.14151 -0.71262,-0.0475 -1.08716,0.20885 -0.37452,0.25633 -1.02,0.23198 -1.43437,-0.0541 -0.41443,-0.28604 -0.95099,-0.38493 -1.19241,-0.21969 -0.40233,0.27533 -4.3491,0.38592 -5.32028,0.14911 -0.22793,-0.0557 -2.89563,-0.0942 -5.9282,-0.0861 -5.776622,0.0152 -6.693916,-0.009 -8.423502,-0.2377 -0.581771,-0.0765 -1.297474,0.0249 -1.59043,0.22532 -0.58859,0.40282 -3.026565,-4.02894 -2.857132,-5.19364 0.05243,-0.35982 1.792401,-0.60198 3.86676,-0.53812 2.074359,0.0638 4.895097,0.0551 6.268322,-0.0194 1.373225,-0.0745 2.629782,0.0589 2.792339,0.29649 0.162595,0.23755 0.580631,0.23683 0.929033,-0.002 0.55797,-0.38185 1.48877,-0.38671 5.06468,-0.0264 0.49267,0.0496 1.08352,-0.0382 1.31299,-0.19527 0.22946,-0.15709 1.08989,-0.12441 1.91205,0.0726 0.82215,0.1969 1.67203,0.23673 1.88861,0.0885 0.21658,-0.14816 1.1515,-0.18748 2.07761,-0.087 0.92607,0.10029 3.21028,0.16848 5.07598,0.15139 1.86571,-0.0171 3.4682,0.22756 3.56106,0.54378 0.0929,0.31626 -0.28963,1.56699 -0.84999,2.77948 l -1.01884,2.20453 z"
     id="path3423"
     inkscape:connector-curvature="0"
     sodipodi:nodetypes="scsssssssscscsscssssssssssssssssssssssccssscccsssssssssssssscssccscccssssssssssscsssssccsssssssscssssccccscssssssscssssscscscscscc" />
  <path
     style="fill:none;fill-rule:evenodd;stroke:#000000;stroke-width:7.59789705;stroke-linecap:round;stroke-linejoin:miter;stroke-miterlimit:4;stroke-dasharray:none;stroke-opacity:1"
     d="m 3.853055,170.40132 130.283725,0 0,-166.548265"
     id="path3434"
     inkscape:connector-curvature="0" />
  <path
     sodipodi:nodetypes="cc"
     style="fill:none;fill-rule:evenodd;stroke:#000000;stroke-width:7.59789705;stroke-linecap:round;stroke-linejoin:miter;stroke-miterlimit:4;stroke-dasharray:none;stroke-opacity:1"
     d="m 36.076426,182.0356 -6.105594,0"
     id="path4238"
     inkscape:connector-curvature="0"
     inkscape:transform-center-x="-8.5476364" />
  <path
     inkscape:transform-center-x="-8.5476355"
     inkscape:connector-curvature="0"
     id="path4242"
     d="m 58.870116,182.0356 -6.105594,0"
     style="fill:none;fill-rule:evenodd;stroke:#000000;stroke-width:7.59789705;stroke-linecap:round;stroke-linejoin:miter;stroke-miterlimit:4;stroke-dasharray:none;stroke-opacity:1"
     sodipodi:nodetypes="cc" />
  <path
     inkscape:transform-center-x="-8.5476367"
     inkscape:connector-curvature="0"
     id="path4246"
     d="m 81.663811,182.0356 -6.1056,0"
     style="fill:none;fill-rule:evenodd;stroke:#000000;stroke-width:7.59789705;stroke-linecap:round;stroke-linejoin:miter;stroke-miterlimit:4;stroke-dasharray:none;stroke-opacity:1"
     sodipodi:nodetypes="cc" />
  <path
     sodipodi:nodetypes="cc"
     style="fill:none;fill-rule:evenodd;stroke:#000000;stroke-width:7.59789705;stroke-linecap:round;stroke-linejoin:miter;stroke-miterlimit:4;stroke-dasharray:none;stroke-opacity:1"
     d="m 104.4575,182.0356 -6.105599,0"
     id="path4248"
     inkscape:connector-curvature="0"
     inkscape:transform-center-x="-8.5476358" />
  <path
     inkscape:transform-center-x="-8.547635"
     inkscape:connector-curvature="0"
     id="path4250"
     d="m 127.25119,182.0356 -6.1056,0"
     style="fill:none;fill-rule:evenodd;stroke:#000000;stroke-width:7.59789705;stroke-linecap:round;stroke-linejoin:miter;stroke-miterlimit:4;stroke-dasharray:none;stroke-opacity:1"
     sodipodi:nodetypes="cc" />
  <path
     inkscape:connector-curvature="0"
     id="path4261"
     d="m 22.847797,170.40132 130.283723,0 0,-166.548265"
     style="fill:none;fill-rule:evenodd;stroke:#000000;stroke-width:7.59789705;stroke-linecap:round;stroke-linejoin:miter;stroke-miterlimit:4;stroke-dasharray:none;stroke-opacity:1" />
  <path
     sodipodi:nodetypes="cc"
     style="fill:none;fill-rule:evenodd;stroke:#000000;stroke-width:7.59789705;stroke-linecap:round;stroke-linejoin:miter;stroke-miterlimit:4;stroke-dasharray:none;stroke-opacity:1"
     d="m 150.04488,182.0356 -6.1056,0"
     id="path4263"
     inkscape:connector-curvature="0"
     inkscape:transform-center-x="-8.5476341" />
  <path
     inkscape:transform-center-x="-8.5476362"
     inkscape:connector-curvature="0"
     id="path4265"
     d="m 13.282735,182.0356 -6.105594,0"
     style="fill:none;fill-rule:evenodd;stroke:#000000;stroke-width:7.59789705;stroke-linecap:round;stroke-linejoin:miter;stroke-miterlimit:4;stroke-dasharray:none;stroke-opacity:1"
     sodipodi:nodetypes="cc" />
  <path
     sodipodi:nodetypes="cc"
     style="fill:none;fill-rule:evenodd;stroke:#000000;stroke-width:7.59789705;stroke-linecap:round;stroke-linejoin:miter;stroke-miterlimit:4;stroke-dasharray:none;stroke-opacity:1"
     d="m 131.52501,49.072406 -48.368899,0"
     id="path4267"
     inkscape:connector-curvature="0"
     inkscape:transform-center-x="-8.5476388" />
  <path
     inkscape:transform-center-x="-8.5476396"
     inkscape:connector-curvature="0"
     id="path4269"
     d="m 131.52501,60.469251 -44.569949,0"
     style="fill:none;fill-rule:evenodd;stroke:#000000;stroke-width:7.59789705;stroke-linecap:round;stroke-linejoin:miter;stroke-miterlimit:4;stroke-dasharray:none;stroke-opacity:1"
     sodipodi:nodetypes="cc" />
  <path
     inkscape:transform-center-x="-6.044091"
     inkscape:connector-curvature="0"
     id="path4271"
     d="M 151.10169,20.989293 135.89446,5.78206"
     style="fill:none;fill-rule:evenodd;stroke:#000000;stroke-width:7.59789705;stroke-linecap:round;stroke-linejoin:miter;stroke-miterlimit:4;stroke-dasharray:none;stroke-opacity:1"
     sodipodi:nodetypes="cc"
     inkscape:transform-center-y="6.0440908" />
  <path
     inkscape:transform-center-y="6.0440909"
     sodipodi:nodetypes="cc"
     style="fill:none;fill-rule:evenodd;stroke:#000000;stroke-width:7.59789705;stroke-linecap:round;stroke-linejoin:miter;stroke-miterlimit:4;stroke-dasharray:none;stroke-opacity:1"
     d="M 135.89446,43.782984 151.10169,28.575751"
     id="path4273"
     inkscape:connector-curvature="0"
     inkscape:transform-center-x="6.0440909" />
  <path
     inkscape:transform-center-y="6.0440909"
     sodipodi:nodetypes="cc"
     style="fill:none;fill-rule:evenodd;stroke:#000000;stroke-width:7.59789705;stroke-linecap:round;stroke-linejoin:miter;stroke-miterlimit:4;stroke-dasharray:none;stroke-opacity:1"
     d="M 151.10169,66.576669 135.89446,51.369442"
     id="path4275"
     inkscape:connector-curvature="0"
     inkscape:transform-center-x="-6.044091" />
  <path
     inkscape:transform-center-x="6.0440909"
     inkscape:connector-curvature="0"
     id="path4277"
     d="m 135.89446,89.370361 15.20723,-15.20723"
     style="fill:none;fill-rule:evenodd;stroke:#000000;stroke-width:7.59789705;stroke-linecap:round;stroke-linejoin:miter;stroke-miterlimit:4;stroke-dasharray:none;stroke-opacity:1"
     sodipodi:nodetypes="cc"
     inkscape:transform-center-y="6.0440915" />
  <path
     inkscape:transform-center-x="-6.044091"
     inkscape:connector-curvature="0"
     id="path4279"
     d="M 151.10169,112.16405 135.89446,96.956821"
     style="fill:none;fill-rule:evenodd;stroke:#000000;stroke-width:7.59789705;stroke-linecap:round;stroke-linejoin:miter;stroke-miterlimit:4;stroke-dasharray:none;stroke-opacity:1"
     sodipodi:nodetypes="cc"
     inkscape:transform-center-y="6.0440907" />
  <path
     inkscape:transform-center-y="6.0440898"
     sodipodi:nodetypes="cc"
     style="fill:none;fill-rule:evenodd;stroke:#000000;stroke-width:7.59789705;stroke-linecap:round;stroke-linejoin:miter;stroke-miterlimit:4;stroke-dasharray:none;stroke-opacity:1"
     d="m 135.89446,134.95774 15.20723,-15.20723"
     id="path4281"
     inkscape:connector-curvature="0"
     inkscape:transform-center-x="6.0440909" />
  <path
     inkscape:transform-center-y="6.044089"
     sodipodi:nodetypes="cc"
     style="fill:none;fill-rule:evenodd;stroke:#000000;stroke-width:7.59789705;stroke-linecap:round;stroke-linejoin:miter;stroke-miterlimit:4;stroke-dasharray:none;stroke-opacity:1"
     d="M 151.10169,157.75143 135.89446,142.5442"
     id="path4283"
     inkscape:connector-curvature="0"
     inkscape:transform-center-x="-6.044091" />
  <path
     inkscape:transform-center-x="6.0440886"
     inkscape:connector-curvature="0"
     id="path4285"
     d="m 147.29131,169.14828 3.81038,-3.81039"
     style="fill:none;fill-rule:evenodd;stroke:#000000;stroke-width:7.59789705;stroke-linecap:round;stroke-linejoin:miter;stroke-miterlimit:4;stroke-dasharray:none;stroke-opacity:1"
     sodipodi:nodetypes="cc"
     inkscape:transform-center-y="6.0440909" />
</svg>
